<?xml version="1.0" encoding="UTF-8"?>
<svg id="Layer_1" xmlns="http://www.w3.org/2000/svg" version="1.1" viewBox="0 0 120 60">
  <defs>
    <style>
      .st0 {
        isolation: isolate;
        opacity: .66;
      }

      .st1 {
        fill: #2560ff;
      }
    </style>
  </defs>
  <path class="st1" d="M49.1,16v25.1h17.5V16h-17.5ZM63.7,38.2h-11.7v-11.1h8.2v-4h3.5v15.1h0ZM55.5,30h4.7v5.3h-4.7v-5.3Z"/>
  <polygon class="st0" points="41.7 27.4 39.4 27.4 39.4 37.9 41.7 37.9 41.7 29.7 48.1 29.7 48.1 27.4 41.7 27.4"/>
  <polygon class="st0" points="20.7 29.7 24.8 29.7 24.8 37.9 27.1 37.9 27.1 27.4 18.3 27.4 18.3 37.9 20.7 37.9 20.7 29.7"/>
  <path class="st0" d="M38.2,33.8v-6.4h-9.9v10.5h8.8v-2.3h-6.4v-1.8h7.6ZM30.6,29.7h5.3v1.7h-5.3v-1.7Z"/>
  <path class="st0" d="M79.5,27.4v2.1s0,8.4,0,8.4h10.5v-10.5h-10.5ZM87.7,35.6h-5.9v-5.9h5.9v5.9Z"/>
  <path class="st0" d="M70.2,27.4v-4.3h-2.4v14.8h10.5v-10.5h-8.1ZM76,35.6h-5.9v-5.9h5.9v5.9Z"/>
  <polygon class="st0" points="104.6 27.5 101.2 27.5 97.5 31.1 93.9 27.5 90.5 27.5 95.9 32.8 90.7 37.9 90.8 37.9 94.1 37.9 97.5 34.5 101 37.9 104.3 37.9 104.4 37.9 99.2 32.8 104.6 27.5"/>
</svg>
